Coordinates
version=1
nRows=8
nColumns=36
inDegrees=yes

Units are S.I. units (second, meters, Newtons, ...)
If the header above contains a line with 'inDegrees', this indicates whether rotational values are in degrees (yes) or radians (no).

endheader
time	pelvis_tilt	pelvis_list	pelvis_rotation	pelvis_tx	pelvis_ty	pelvis_tz	hip_flexion_r	hip_adduction_r	hip_rotation_r	knee_angle_r	knee_angle_r_beta	ankle_angle_r	subtalar_angle_r	mtp_angle_r	hip_flexion_l	hip_adduction_l	hip_rotation_l	knee_angle_l	knee_angle_l_beta	ankle_angle_l	subtalar_angle_l	mtp_angle_l	lumbar_extension	lumbar_bending	lumbar_rotation	arm_flex_r	arm_add_r	arm_rot_r	elbow_flex_r	pro_sup_r	arm_flex_l	arm_add_l	arm_rot_l	elbow_flex_l	pro_sup_l
      1.15000000	     -5.31574813	      0.91365974	      0.81044315	     -0.32556480	      0.70348681	     -0.61123229	     68.95410476	     -5.52337223	     -0.30127757	    103.52204093	      1.80680046	     38.19695232	     -8.37184611	     -7.40135205	     69.84825063	     -1.26554899	     -0.11663658	    102.43935562	      1.78790404	     37.48684800	     -5.14025437	     -7.40135205	    -34.00686565	     -2.04631635	     -4.02071580	      5.79894933	    -11.31121281	    -13.07296677	     74.54711040	     97.13466020	      2.64679454	    -14.87240036	    -19.30023074	     93.67998577	     91.08886383
      1.16000000	     -5.71370081	      0.64236036	      0.69158272	     -0.32202150	      0.68968431	     -0.61201781	     70.38142224	     -5.42325042	     -0.17955424	    105.80285722	      1.84660822	     40.21847424	     -6.96116779	     -7.41624433	     71.63268454	     -1.10707871	      0.54009767	    105.04731117	      1.83342145	     38.52802000	     -4.92734679	     -7.41624433	    -34.04643052	     -1.59750069	     -5.39917118	     11.70210696	    -12.20902508	     -8.87322560	     71.54090631	    101.26900388	      4.26792314	    -16.60691718	    -19.45195283	     93.56050388	     95.02029388
      1.17000000	     -6.19804928	      0.38361973	      0.63685117	     -0.31863147	      0.67674692	     -0.61284220	     71.96758545	     -5.45624102	     -0.16270329	    107.95724696	      1.88420941	     40.99074474	     -6.72218080	     -7.41703312	     73.50357314	     -0.89572452	      1.12025958	    107.48870170	      1.87603175	     39.03423076	     -5.21487627	     -7.41703312	    -34.03197997	     -1.08849309	     -5.30482040	     15.73724310	    -12.47957295	     -7.89543312	     71.12077775	    101.45213151	      7.03106880	    -17.94717341	    -17.89075836	     92.96555933	     95.13813460
      1.18000000	     -6.62184153	      0.19220331	      0.50253365	     -0.31542286	      0.66512849	     -0.61359951	     73.46461505	     -5.47320598	     -0.10176306	    109.96445295	      1.91924176	     41.63318977	     -6.17181641	     -7.41833604	     75.16078102	     -0.75314019	      1.44852495	    109.67067494	      1.91411437	     39.21699462	     -5.56977190	     -7.41833604	    -34.01199028	     -0.73749952	     -5.09609986	     19.51027263	    -12.88445028	     -6.52804817	     70.47878747	    101.80161916	      9.65146410	    -18.86870129	    -16.58341986	     92.32746388	     95.28362928
      1.19000000	     -6.70720953	      0.11532063	      0.35843237	     -0.31220062	      0.65524776	     -0.61436575	     74.52051682	     -5.50391784	      0.04181347	    111.79882442	      1.95125759	     41.78200047	     -6.23545026	     -7.41858012	     76.21369691	     -0.59456380	      1.52237425	    111.56705069	      1.94721237	     39.45528828	     -5.94195317	     -7.41858012	    -34.50802011	     -0.49715866	     -4.98339902	     22.66630575	    -12.78080330	     -6.18418592	     70.98447404	    101.91163255	     11.85649505	    -19.26483982	    -16.14855929	     92.50728513	     95.34556714
      1.20000000	     -7.13829941	      0.01741736	      0.23456078	     -0.30902847	      0.64617447	     -0.61527983	     75.82732740	     -5.57990286	      0.20891375	    113.40258100	      1.97924842	     42.15241115	     -5.67616662	     -7.42011125	     77.48165848	     -0.33700776	      1.60038570	    113.13759352	      1.97462351	     39.63471179	     -6.95742974	     -7.42011125	    -34.43243349	     -0.23212084	     -4.82148776	     25.74429770	    -13.15576365	     -4.52618297	     70.43463745	    102.31748542	     13.77605912	    -19.83084107	    -14.87453121	     92.03986326	     95.53158651
      1.21000000	     -7.14233602	     -0.02375361	      0.07956205	     -0.30567115	      0.63908976	     -0.61610434	     76.55611233	     -5.66376109	      0.38878649	    114.78856371	      2.00343838	     42.11741343	     -5.71464071	     -7.42026286	     78.04783525	     -0.08598769	      1.72581281	    114.49241185	      1.99826956	     39.83628880	     -7.21628380	     -7.42026286	    -35.00576462	     -0.02614471	     -4.67588666	     28.21365756	    -12.85992558	     -4.35171255	     71.06655820	    102.39464931	     15.39260193	    -19.77455331	    -14.63987946	     92.34621187	     95.58968077
      1.22000000	     -7.17910383	     -0.08055485	     -0.05942316	     -0.30235279	      0.63324261	     -0.61684268	     77.23698878	     -5.72848171	      0.52294083	    115.99578624	      2.02450839	     42.01904343	     -5.71245778	     -7.42037988	     78.47158767	      0.14807940	      1.93999973	    115.58971339	      2.01742108	     40.05282106	     -7.45564153	     -7.42037988	    -35.51505746	      0.14099944	     -4.53240005	     30.40620829	    -12.56402761	     -4.13130779	     71.66664088	    102.46759633	     16.74695359	    -19.59983633	    -14.35327937	     92.58991599	     95.63998732
